
<svg width="307px" height="140px" viewBox="680 50 307 140" version="1.1" xmlns="http://www.w3.org/2000/svg" xmlns:xlink="http://www.w3.org/1999/xlink">
    <!-- Generator: Sketch 41.2 (35397) - http://www.bohemiancoding.com/sketch -->
    <desc>Created with Sketch.</desc>
    <defs></defs>
    <path d="M680,51 L680,110.299277 L693.039197,110.299277 L693.039197,84.7191967 L717.041285,84.7191967 L717.041285,110.299277 L730.080482,110.299277 L730.080482,51 L717.041285,51 L717.041285,73.7563052 L693.039197,73.7563052 L693.039197,51 L680,51 Z M739.79759,80.5665863 C739.963695,77.7981655 740.65579,75.5004107 741.873895,73.673253 C743.092001,71.8460952 744.642293,70.3788542 746.524819,69.2714859 C748.407345,68.1641176 750.525155,67.3751295 752.878313,66.904498 C755.231471,66.4338664 757.598435,66.1985542 759.979277,66.1985542 C762.138645,66.1985542 764.325665,66.350815 766.540401,66.6553413 C768.755138,66.9598676 770.776055,67.5550692 772.603213,68.4409638 C774.43037,69.3268585 775.925295,70.5587872 777.088032,72.1367871 C778.250769,73.714787 778.832128,75.8049133 778.832128,78.4072288 L778.832128,100.748273 C778.832128,102.686168 778.942863,104.540982 779.164337,106.312771 C779.385811,108.08456 779.773384,109.413382 780.327068,110.299277 L768.36755,110.299277 C768.146076,109.634856 767.966132,108.956603 767.827711,108.264498 C767.68929,107.572393 767.592396,106.866456 767.537028,106.146667 C765.654502,108.084561 763.439798,109.441067 760.892851,110.216225 C758.345904,110.991383 755.743628,111.378956 753.085944,111.378956 C751.037312,111.378956 749.127131,111.129802 747.355341,110.631486 C745.583552,110.13317 744.03326,109.358024 742.704418,108.306024 C741.375576,107.254024 740.337433,105.925202 739.58996,104.319518 C738.842486,102.713834 738.468755,100.803652 738.468755,98.5889155 C738.468755,96.1527052 738.897854,94.1456303 739.756064,92.5676304 C740.614275,90.9896306 741.721626,89.730018 743.078152,88.7887549 C744.434679,87.8474919 745.984971,87.1415551 747.729076,86.6709236 C749.473181,86.2002921 751.231102,85.8265609 753.002891,85.5497188 C754.774681,85.2728767 756.51876,85.0514064 758.235181,84.8853011 C759.951601,84.7191959 761.47421,84.4700417 762.803052,84.1378312 C764.131894,83.8056208 765.183878,83.3211544 765.959036,82.6844176 C766.734194,82.0476808 767.094083,81.1202738 767.038715,79.9021686 C767.038715,78.628695 766.831086,77.6182366 766.415823,76.870763 C766.00056,76.1232894 765.446884,75.5419297 764.754779,75.1266666 C764.062674,74.7114035 763.259844,74.4345656 762.346265,74.2961445 C761.432686,74.1577235 760.449911,74.088514 759.397911,74.088514 C757.072438,74.088514 755.245308,74.5868223 753.916466,75.5834538 C752.587624,76.5800852 751.812478,78.2411128 751.591004,80.5665863 L739.79759,80.5665863 Z M767.038715,89.2870682 C766.540399,89.7300155 765.917514,90.0760629 765.17004,90.3252208 C764.422566,90.5743787 763.619736,90.7820071 762.761526,90.9481124 C761.903315,91.1142176 761.003592,91.2526366 760.062329,91.3633734 C759.121066,91.4741102 758.179817,91.6125292 757.238554,91.7786344 C756.352659,91.9447397 755.48062,92.16621 754.622409,92.4430521 C753.764199,92.7198942 753.016737,93.0936254 752.38,93.5642569 C751.743263,94.0348885 751.231113,94.63009 750.843534,95.3498794 C750.455955,96.0696688 750.262169,96.983234 750.262169,98.0906023 C750.262169,99.1426022 750.455955,100.028484 750.843534,100.748273 C751.231113,101.468062 751.757105,102.03558 752.421526,102.450843 C753.085947,102.866106 753.861093,103.156786 754.746988,103.322891 C755.632882,103.488997 756.546448,103.572048 757.487711,103.572048 C759.813184,103.572048 761.612631,103.184475 762.886104,102.409317 C764.159578,101.634159 765.100827,100.706752 765.709879,99.6270682 C766.318932,98.547384 766.692663,97.4538742 766.831084,96.3465059 C766.969505,95.2391376 767.038715,94.3532562 767.038715,93.6888352 L767.038715,89.2870682 Z M787.967871,67.3612851 L787.967871,110.299277 L799.761285,110.299277 L799.761285,90.9481124 C799.761285,89.0102178 799.955071,87.2107713 800.34265,85.5497188 C800.730229,83.8886663 801.380798,82.4352672 802.294377,81.1894778 C803.207956,79.9436885 804.412201,78.9609138 805.907148,78.2411244 C807.402096,77.521335 809.229226,77.1614457 811.388594,77.1614457 C812.108383,77.1614457 812.855846,77.2029714 813.631004,77.286024 C814.406162,77.3690767 815.070573,77.4659699 815.624257,77.5767068 L815.624257,66.6138152 C814.682994,66.3369731 813.824796,66.1985542 813.049638,66.1985542 C811.554691,66.1985542 810.115134,66.4200245 808.730923,66.8629718 C807.346713,67.3059192 806.045575,67.9288045 804.82747,68.7316465 C803.609364,69.5344886 802.529697,70.5034213 801.588433,71.6384738 C800.64717,72.7735264 799.899708,74.0054551 799.346024,75.3342971 L799.179919,75.3342971 L799.179919,67.3612851 L787.967871,67.3612851 Z M820.27518,67.3612851 L820.27518,110.299277 L832.068594,110.299277 L832.068594,90.9481124 C832.068594,89.0102178 832.262381,87.2107713 832.649959,85.5497188 C833.037538,83.8886663 833.688108,82.4352672 834.601686,81.1894778 C835.515265,79.9436885 836.71951,78.9609138 838.214457,78.2411244 C839.709405,77.521335 841.536535,77.1614457 843.695903,77.1614457 C844.415693,77.1614457 845.163155,77.2029714 845.938313,77.286024 C846.713471,77.3690767 847.377882,77.4659699 847.931566,77.5767068 L847.931566,66.6138152 C846.990303,66.3369731 846.132105,66.1985542 845.356947,66.1985542 C843.862,66.1985542 842.422443,66.4200245 841.038233,66.8629718 C839.654022,67.3059192 838.352884,67.9288045 837.134779,68.7316465 C835.916674,69.5344886 834.837006,70.5034213 833.895743,71.6384738 C832.95448,72.7735264 832.207017,74.0054551 831.653333,75.3342971 L831.487229,75.3342971 L831.487229,67.3612851 L820.27518,67.3612851 Z M873.760803,115.614618 L891.70008,67.3612851 L879.491405,67.3612851 L870.106506,96.761767 L869.940401,96.761767 L860.223293,67.3612851 L847.682409,67.3612851 L862.714859,107.641606 C863.047069,108.472133 863.213172,109.358014 863.213172,110.299277 C863.213172,111.572751 862.839441,112.73547 862.091967,113.78747 C861.344494,114.83947 860.195616,115.448513 858.645301,115.614618 C857.482564,115.669987 856.319845,115.642303 855.157108,115.531566 C853.994371,115.420829 852.859336,115.310094 851.751967,115.199357 L851.751967,124.916466 C852.970073,125.027203 854.174318,125.124096 855.364739,125.207148 C856.555159,125.290201 857.759404,125.331727 858.97751,125.331727 C863.019404,125.331727 866.175356,124.584264 868.445461,123.089317 C870.715566,121.59437 872.487329,119.102829 873.760803,115.614618 Z M693.039197,153.168873 L693.039197,139.299154 L705.247871,139.299154 C706.410608,139.299154 707.531802,139.396047 708.611486,139.589837 C709.69117,139.783626 710.646261,140.129674 711.476787,140.627989 C712.307313,141.126305 712.971724,141.8184 713.47004,142.704295 C713.968356,143.590189 714.21751,144.725225 714.21751,146.109435 C714.21751,148.601014 713.470048,150.40046 711.9751,151.507829 C710.480153,152.615197 708.569971,153.168873 706.244498,153.168873 L693.039197,153.168873 Z M680,129.166785 L680,188.466062 L708.736064,188.466062 C711.393748,188.466062 713.982183,188.133856 716.501446,187.469435 C719.020709,186.805014 721.263096,185.780714 723.228675,184.396503 C725.194253,183.012293 726.758388,181.226688 727.921124,179.039636 C729.083861,176.852583 729.665221,174.264149 729.665221,171.274254 C729.665221,167.564571 728.765498,164.394776 726.966024,161.764776 C725.16655,159.134777 722.439697,157.293805 718.785381,156.241805 C721.443065,154.968331 723.45014,153.334987 724.806667,151.341724 C726.163193,149.348461 726.841446,146.85692 726.841446,143.867026 C726.841446,141.098605 726.384663,138.773166 725.471084,136.89064 C724.557505,135.008114 723.270209,133.499347 721.609157,132.364295 C719.948104,131.229242 717.954871,130.41257 715.629398,129.914254 C713.303924,129.415939 710.729331,129.166785 707.905542,129.166785 L680,129.166785 Z M693.039197,178.333692 L693.039197,162.055459 L707.241124,162.055459 C710.064914,162.055459 712.334985,162.706028 714.051406,164.007186 C715.767826,165.308344 716.626024,167.481522 716.626024,170.526784 C716.626024,172.0771 716.363028,173.350555 715.837028,174.347186 C715.311028,175.343818 714.605091,176.132806 713.719197,176.714174 C712.833302,177.295542 711.809002,177.710799 710.646265,177.959957 C709.483528,178.209115 708.265441,178.333692 706.991968,178.333692 L693.039197,178.333692 Z M766.12514,162.387668 L746.94008,162.387668 C746.995449,161.557142 747.175393,160.615893 747.47992,159.563893 C747.784446,158.511893 748.310438,157.515277 749.057911,156.574013 C749.805385,155.63275 750.802002,154.843762 752.047791,154.207026 C753.29358,153.570289 754.857715,153.251925 756.740241,153.251925 C759.619398,153.251925 761.764892,154.027071 763.176787,155.577387 C764.588682,157.127703 765.571456,159.397774 766.12514,162.387668 Z M746.94008,169.862367 L777.918554,169.862367 C778.140028,166.540262 777.86319,163.356626 777.088032,160.311363 C776.312874,157.2661 775.053262,154.553088 773.309156,152.172246 C771.565051,149.791405 769.336506,147.895065 766.623454,146.48317 C763.910401,145.071275 760.726765,144.365339 757.07245,144.365339 C753.805713,144.365339 750.829705,144.946698 748.144337,146.109435 C745.458969,147.272172 743.147372,148.86399 741.209478,150.884937 C739.271583,152.905884 737.776658,155.300532 736.724658,158.068953 C735.672659,160.837374 735.146667,163.827224 735.146667,167.038592 C735.146667,170.360697 735.658817,173.405914 736.683132,176.174335 C737.707448,178.942755 739.160847,181.323562 741.043373,183.316825 C742.925899,185.310088 745.223654,186.846538 747.936707,187.926222 C750.649759,189.005906 753.694976,189.54574 757.07245,189.54574 C761.94487,189.54574 766.097439,188.438389 769.530281,186.223652 C772.963123,184.008915 775.510032,180.326971 777.171084,175.177708 L766.789558,175.177708 C766.401979,176.50655 765.349995,177.766163 763.633574,178.956584 C761.917153,180.147005 759.868553,180.742206 757.487711,180.742206 C754.165606,180.742206 751.618697,179.884009 749.846907,178.167588 C748.075118,176.451167 747.106185,173.682788 746.94008,169.862367 Z M785.227148,129.166785 L785.227148,188.466062 L797.020562,188.466062 L797.020562,129.166785 L785.227148,129.166785 Z M806.654618,129.166785 L806.654618,188.466062 L818.448032,188.466062 L818.448032,129.166785 L806.654618,129.166785 Z M856.652048,162.387668 L837.466988,162.387668 C837.522356,161.557142 837.702301,160.615893 838.006827,159.563893 C838.311353,158.511893 838.837345,157.515277 839.584819,156.574013 C840.332293,155.63275 841.328909,154.843762 842.574698,154.207026 C843.820488,153.570289 845.384622,153.251925 847.267148,153.251925 C850.146306,153.251925 852.2918,154.027071 853.703694,155.577387 C855.115589,157.127703 856.098364,159.397774 856.652048,162.387668 Z M837.466988,169.862367 L868.445461,169.862367 C868.666935,166.540262 868.390097,163.356626 867.614939,160.311363 C866.839781,157.2661 865.580169,154.553088 863.836064,152.172246 C862.091959,149.791405 859.863413,147.895065 857.150361,146.48317 C854.437309,145.071275 851.253672,144.365339 847.599357,144.365339 C844.33262,144.365339 841.356613,144.946698 838.671245,146.109435 C835.985876,147.272172 833.67428,148.86399 831.736385,150.884937 C829.798491,152.905884 828.303566,155.300532 827.251566,158.068953 C826.199566,160.837374 825.673574,163.827224 825.673574,167.038592 C825.673574,170.360697 826.185724,173.405914 827.21004,176.174335 C828.234356,178.942755 829.687755,181.323562 831.570281,183.316825 C833.452807,185.310088 835.750562,186.846538 838.463614,187.926222 C841.176666,189.005906 844.221884,189.54574 847.599357,189.54574 C852.471778,189.54574 856.624347,188.438389 860.057188,186.223652 C863.49003,184.008915 866.036939,180.326971 867.697992,175.177708 L857.316465,175.177708 C856.928887,176.50655 855.876902,177.766163 854.160482,178.956584 C852.444061,180.147005 850.39546,180.742206 848.014618,180.742206 C844.692513,180.742206 842.145604,179.884009 840.373815,178.167588 C838.602026,176.451167 837.633093,173.682788 837.466988,169.862367 Z M875.421847,145.52807 L875.421847,188.466062 L887.215261,188.466062 L887.215261,165.958913 C887.215261,161.584808 887.935039,158.442698 889.374618,156.532487 C890.814197,154.622277 893.139635,153.667186 896.351003,153.667186 C899.174793,153.667186 901.140342,154.539226 902.24771,156.283331 C903.355079,158.027436 903.908754,160.671238 903.908754,164.214817 L903.908754,188.466062 L915.702168,188.466062 L915.702168,162.055459 C915.702168,159.397775 915.466856,156.975443 914.996224,154.788391 C914.525593,152.601339 913.708921,150.746524 912.546184,149.223893 C911.383447,147.701262 909.791629,146.510858 907.770682,145.652648 C905.749735,144.794438 903.1613,144.365339 900.005301,144.365339 C897.513722,144.365339 895.077548,144.932857 892.696706,146.067909 C890.315864,147.202962 888.377999,149.01625 886.883052,151.507829 L886.633895,151.507829 L886.633895,145.52807 L875.421847,145.52807 Z M936.797429,138.883893 L936.797429,129.166785 L925.004015,129.166785 L925.004015,138.883893 L936.797429,138.883893 Z M925.004015,145.52807 L925.004015,188.466062 L936.797429,188.466062 L936.797429,145.52807 L925.004015,145.52807 Z M975.001445,162.387668 L955.816385,162.387668 C955.871753,161.557142 956.051698,160.615893 956.356224,159.563893 C956.660751,158.511893 957.186743,157.515277 957.934216,156.574013 C958.68169,155.63275 959.678306,154.843762 960.924096,154.207026 C962.169885,153.570289 963.734019,153.251925 965.616545,153.251925 C968.495703,153.251925 970.641197,154.027071 972.053092,155.577387 C973.464986,157.127703 974.447761,159.397774 975.001445,162.387668 Z M955.816385,169.862367 L986.794859,169.862367 C987.016332,166.540262 986.739494,163.356626 985.964337,160.311363 C985.189179,157.2661 983.929566,154.553088 982.185461,152.172246 C980.441356,149.791405 978.212811,147.895065 975.499758,146.48317 C972.786706,145.071275 969.60307,144.365339 965.948754,144.365339 C962.682018,144.365339 959.70601,144.946698 957.020642,146.109435 C954.335274,147.272172 952.023677,148.86399 950.085782,150.884937 C948.147888,152.905884 946.652963,155.300532 945.600963,158.068953 C944.548963,160.837374 944.022971,163.827224 944.022971,167.038592 C944.022971,170.360697 944.535121,173.405914 945.559437,176.174335 C946.583753,178.942755 948.037152,181.323562 949.919678,183.316825 C951.802204,185.310088 954.099959,186.846538 956.813011,187.926222 C959.526064,189.005906 962.571281,189.54574 965.948754,189.54574 C970.821175,189.54574 974.973744,188.438389 978.406586,186.223652 C981.839427,184.008915 984.386336,180.326971 986.047389,175.177708 L975.665863,175.177708 C975.278284,176.50655 974.2263,177.766163 972.509879,178.956584 C970.793458,180.147005 968.744857,180.742206 966.364015,180.742206 C963.04191,180.742206 960.495001,179.884009 958.723212,178.167588 C956.951423,176.451167 955.98249,173.682788 955.816385,169.862367 Z" id="Harry-Bellenie" stroke="none" fill="#F8F3EE" fill-rule="evenodd"></path>
</svg>
